# xmcd
#
# Track frame offsets:
#	150
#	15104
#	25333
#	42321
#	54822
#	72988
#	89720
#	106937
#	121456
#	138640
#	154889
#	170285
#	183651
#	198001
#	210407
#	227089
#	241768
#	256682
#	271443
#	282056
#	293735
#	312749
#	325990
#
# Disc length: 4689 seconds
#
# Revision: 0
# Processed by: cddbd v1.5.1PL0 Copyright (c) Steve Scherf et al.
# Submitted via: audiograbber 1.83.01
#
DISCID=43124f17
DTITLE=Various Artist - Hot 97 - Request Line Vol. 6
DYEAR=2005
DGENRE=Hip-Hop
TTITLE0=Pharell (Feat. Gwen Stefani) - Can I Have It Like That
TTITLE1=Busta Rhymes - Touch It
TTITLE2=The Fugees - Take It Easy
TTITLE3=50 Cent - Window Shopper
TTITLE4=Tru Life - It's The New New York
TTITLE5=Lil Kim (Feat. Tego Calderon) - Lighters Up (Remix)
TTITLE6=Paul Wall (Feat. Mike Jones and Bun B) - They Don't Know
TTITLE7=Ashanti (Feat. Paul Wall and Method Man) - Still On It
TTITLE8=Mario (Feat. Juvenile) - Boom
TTITLE9=Kanye West - Touch The Sky
TTITLE10=David Banner - Play
TTITLE11=Red Cafe (Feat. Fabolous) - Bling Blaow
TTITLE12=Camron - Do Your Thing
TTITLE13=Nas (Feat. Lauryn Hill) - It Wasn't You
TTITLE14=Styles P (Feat. Akon) - Can You Believe It
TTITLE15=Twista (Feat. Trey Songz) - Girl Tonite
TTITLE16=Trey Songz - Gotta Go
TTITLE17=Trina (Feat. Kelly Rowland) - Here We Go
TTITLE18=Common - Testify
TTITLE19=The Notorious B.I.G. (Feat. Bob Marley) - Hold Ya Head
TTITLE20=Marques Houston - Sex With You
TTITLE21=Lyfe Jennings (Feat. Fantasia) - Hypothetically
TTITLE22=Akon (Feat. Shabba Ranks and Vybz Cartel) - Soul Survivor (Gun Session R
TTITLE22=emix)
EXTD=
EXTT0=
EXTT1=
EXTT2=
EXTT3=
EXTT4=
EXTT5=
EXTT6=
EXTT7=
EXTT8=
EXTT9=
EXTT10=
EXTT11=
EXTT12=
EXTT13=
EXTT14=
EXTT15=
EXTT16=
EXTT17=
EXTT18=
EXTT19=
EXTT20=
EXTT21=
EXTT22=
PLAYORDER=
